<?xml version="1.0" ?><!DOCTYPE svg  PUBLIC '-//W3C//DTD SVG 1.1//EN'  'http://www.w3.org/Graphics/SVG/1.1/DTD/svg11.dtd'><svg enable-background="new 0 0 512 512" height="512px" version="1.1" viewBox="0 0 512 512" width="512px" xml:space="preserve" xmlns="http://www.w3.org/2000/svg" xmlns:xlink="http://www.w3.org/1999/xlink"><g id="Layer_13"><g><path d="M255.998,466.861c8.576,0,15.525-10.662,15.525-23.799c0-13.146-6.949-23.789-15.525-23.789    c-8.576,0-15.526,10.643-15.526,23.789C240.472,456.199,247.422,466.861,255.998,466.861z" fill="none"/><path d="M145.619,8.41v223.062h220.762V8.41H145.619z M351.289,146.105c-0.142,0.028-0.293,0.057-0.435,0.057    c-12.995,0-16.026-22.099-27.01-22.505c-11.002-0.396-7.923,18-35.491,18.534c-27.586,0.506-24.611-34.31-34.98-34.66    c-10.37-0.354-7.537,46.191-29.089,44.156c-21.57-2.054-12.031-38.433-31.959-39.292c-19.922-0.878-12.617,33.768-30.995,33.768    c-0.218,0-0.421-0.029-0.624-0.057V27.926c0.382-2.768,0.624-4.34,0.624-4.34h189.524c0,0,0.171,1.549,0.435,4.255V146.105z"/><path d="M205.453,312.119c33.423,63.437,7.423,128.677,8.019,141.842c0.595,13.165,16.8,23.365,16.8,23.365    s16.207,26.264,25.727,26.264c9.52,0,25.726-26.264,25.726-26.264s16.206-10.2,16.801-23.365    c0.576-13.165-25.404-78.405,8.019-141.842c12.382-29.305,51.423-63.602,58.667-69.825H146.786    C154.029,248.518,193.071,282.814,205.453,312.119z M255.998,419.273c8.576,0,15.525,10.643,15.525,23.789    c0,13.137-6.949,23.799-15.525,23.799c-8.576,0-15.526-10.662-15.526-23.799C240.472,429.916,247.422,419.273,255.998,419.273z"/></g></g></svg>